<?xml version="1.0" encoding="UTF-8"?><svg id="Layer_1" xmlns="http://www.w3.org/2000/svg" viewBox="0 0 16 16"><defs><style>.cls-1{fill:none;}.cls-1,.cls-2,.cls-3,.cls-4,.cls-5,.cls-6{stroke-width:0px;}.cls-2{fill:#1b1464;opacity:.12;}.cls-3{fill:#e8643c;}.cls-4{fill:#e7562a;}.cls-5{fill:#fbece7;}.cls-6{fill:#fefefe;}</style></defs><path class="cls-1" d="m0,0h16v16H0V0Z"/><g id="hellobar-v2"><path class="cls-4" d="m16,16H0c0-5.33,0-10.67,0-16h16v16Zm-2.19-3.92c-1.86,0-3.72,0-5.58,0-2.04,0-4.07,0-6.11,0-.02.02-.04.03-.05.05,0,.08,0,.17,0,.25q0,.57.55.57c3.51,0,7.01,0,10.52,0,.24,0,.62.06.7-.06.12-.18.03-.5.03-.76-.02-.02-.03-.03-.05-.05Zm-3.25-4.25s.03.03.05.05v1.68h-1.96v1.2h5.08v-1.22h-1.88v-4.79h1.88v-1.23h-5.08v1.23h1.96v1.81h-5.2v-1.82h1.82v-1.22H2.2v1.23h1.95c0,.13.02.22.02.31,0,1.39,0,2.77,0,4.16,0,.28-.09.35-.36.34-.54-.02-1.07,0-1.6,0v1.23h5.02v-1.22c-.54,0-1.07,0-1.6,0-.19,0-.26-.06-.26-.25.01-.48,0-.96.01-1.44.02-.02.03-.03.05-.05h5.12Z"/><path class="cls-2" d="m5.76,8.25c0,.48,0,.96-.01,1.44,0,.19.07.26.26.25.53,0,1.06,0,1.6,0v1.22H2.58v-1.23c.53,0,1.07-.01,1.6,0,.27,0,.36-.06.36-.34-.01-1.39,0-2.77,0-4.16,0-.09,0-.18-.02-.31h-1.95v-1.23h5.02v1.22h-1.82v1.82h5.2v-1.81h-1.96v-1.23h5.08v1.23h-1.88v4.79h1.88v1.22h-5.08v-1.2h1.96v-1.68s-.03-.03-.05-.05c-1.71,0-3.42,0-5.12,0-.02.02-.03.03-.05.05Z"/><path class="cls-2" d="m2.5,12.45c2.04,0,4.07,0,6.11,0,1.86,0,3.72,0,5.58,0,.02.02.03.03.05.05,0,.26.09.58-.03.76-.08.12-.45.06-.7.06-3.51,0-7.01,0-10.52,0q-.56,0-.55-.57c0-.08,0-.17,0-.25.02-.02.04-.03.05-.05Z"/><path class="cls-6" d="m5.39,7.88c0,.48,0,.96-.01,1.44,0,.19.07.26.26.25.53,0,1.06,0,1.6,0v1.22H2.21v-1.23c.53,0,1.07-.01,1.6,0,.27,0,.36-.06.36-.34-.01-1.39,0-2.77,0-4.16,0-.09,0-.18-.02-.31h-1.95v-1.23h5.02v1.22h-1.82v1.82h5.2v-1.81h-1.96v-1.23h5.08v1.23h-1.88v4.79h1.88v1.22h-5.08v-1.2h1.96v-1.68s-.03-.03-.05-.05c-1.71,0-3.42,0-5.12,0-.02.02-.03.03-.05.05Z"/><path class="cls-6" d="m2.13,12.08c2.04,0,4.07,0,6.11,0,1.86,0,3.72,0,5.58,0,.02.02.03.03.05.05,0,.26.09.58-.03.76-.08.12-.45.06-.7.06-3.51,0-7.01,0-10.52,0q-.56,0-.55-.57c0-.08,0-.17,0-.25.02-.02.04-.03.05-.05Z"/><path class="cls-3" d="m5.39,7.88s.03-.03.05-.05c-.02.02-.03.03-.05.05Z"/><path class="cls-3" d="m10.56,7.82s.03.03.05.05c-.02-.02-.03-.03-.05-.05Z"/><path class="cls-5" d="m2.13,12.08s-.04.03-.05.05c.02-.02.04-.03.05-.05Z"/><path class="cls-5" d="m13.86,12.13s-.03-.03-.05-.05c.02.02.03.03.05.05Z"/></g></svg>